<?xml version="1.0" encoding="utf-8" ?><svg xmlns="http://www.w3.org/2000/svg" xmlns:xlink="http://www.w3.org/1999/xlink" width="1166" height="2020" viewBox="0 0 1166 2020"><path fill="#0E5B45" transform="scale(0.366937 0.366937)" d="M2152.87 1495.29L2154.93 1495.62C2153.63 1506.06 2135.76 1527.16 2129.95 1535.71C1929.4 1831.16 1755.26 2263.53 1766.65 2724.84C1773.93 3019.75 1870.94 3343.13 1999.08 3538.91C1965.11 3541.2 1924.74 3539.6 1890.37 3539.56L1692.82 3539.41C1525.8 3540.97 1358.77 3540.01 1191.76 3536.52C1197.29 3521.68 1212.86 3494.62 1220.39 3480.51C1234.73 3453.98 1248.46 3426.56 1261.55 3398.3C1337.72 3233.46 1390.15 3056.25 1411.89 2850.43C1420.91 2744.98 1423.07 2629.04 1413.66 2523.53C1381.98 2168.27 1254.07 1853.98 1104.8 1602.94C1084.22 1568.34 1057.09 1534.35 1038.8 1497.9C1070.14 1511.48 1159.77 1594.31 1188.63 1623.56C1315.89 1752.55 1429.58 1904.1 1517.99 2105.28C1550.95 2180.25 1567.46 2235.71 1595.53 2310.58C1604.39 2288.06 1615.01 2252.26 1624.36 2226.67C1646.05 2167.95 1669.69 2111.28 1695.19 2056.94C1803.27 1825.3 1992.22 1610.93 2152.87 1495.29Z"/><path fill="#EB3E6A" transform="scale(0.366937 0.366937)" d="M1844.76 4015.49C1917.18 4008.53 2006.68 4022.16 2065.33 4101.72C2091.24 4136.87 2112.3 4196.16 2114.95 4252.55C2117.62 4311.13 2106.27 4369.09 2083.36 4413.86C2045.56 4486.83 1969.7 4523.21 1913.79 4530.18C1841.44 4542.01 1755.48 4521.38 1694.41 4448.99C1636.32 4380.13 1620.67 4239.11 1666.21 4144.26C1709.59 4053.91 1778.17 4027.94 1844.76 4015.49ZM1908.64 4483.3C1944.69 4472.54 1982.54 4450.38 2003.96 4397.28C2040.62 4306.43 2031.08 4165.56 1974.85 4102.1C1937.95 4060.96 1888.77 4055.54 1846.27 4062.2C1807 4073.78 1773.43 4090.72 1750.18 4147.28C1714.45 4234.2 1722.03 4381.56 1777.99 4441.23C1820.61 4486.68 1860.25 4489.11 1908.64 4483.3Z"/><path fill="#EB3E6A" transform="scale(0.366937 0.366937)" d="M171.074 4020.84C276.439 4021.06 499.631 3991.17 530.721 4213.57C539.08 4270.85 533.138 4331.3 514.245 4381.19C484.431 4459.15 429.439 4487 377.574 4505.75C332.712 4528.05 251.792 4524.8 204.607 4524.71C163.562 4524.99 122.515 4524.6 81.4742 4523.53L80.9871 4488.15C91.3551 4485.44 130.976 4486.45 131.88 4470.74C135.009 4416.35 141.664 4102.03 132.351 4072.88C115.715 4051.75 88.4494 4073.25 80.314 4043.96C80.354 4034.84 81.179 4033.42 83.696 4025.5C94.8364 4020.67 155.69 4021.14 171.074 4020.84ZM215.131 4485.73C277.231 4487.09 352.633 4492.56 404.351 4427.3C418.733 4405.73 427.563 4388.93 435.89 4359.26C455.396 4289.77 452.146 4196.61 419.885 4138.81C386.225 4078.5 330.332 4063.36 283.174 4060.57C263.368 4059.53 243.551 4059.2 223.736 4059.58C217.238 4060.8 219.327 4058.26 216.035 4064.63C212.726 4201.63 217.888 4347.6 215.131 4485.73Z"/><path fill="#EB3E6A" transform="scale(0.366937 0.366937)" d="M2019.48 2085.77C2025.04 2086.7 2035.87 2094.48 2042.27 2097.68C2056.05 2104.58 2070.57 2111.73 2084.9 2114.66C2161.19 2130.24 2245.93 2118.88 2317.67 2171.16C2375.58 2213.35 2427.08 2295.59 2449.64 2394.79C2455.97 2422.62 2466.04 2486.28 2458.39 2514.45C2394.53 2532.48 2297.7 2519.03 2236.39 2484.82C2145.15 2433.93 2094.02 2343.38 2051.88 2203.02C2040.36 2164.68 2030.95 2124.72 2019.48 2085.77Z"/><path fill="#EB3E6A" transform="scale(0.366937 0.366937)" d="M662.03 895.583C813.567 879.713 919.546 952.591 1021.57 1135.89C1041.05 1170.89 1063.3 1203.58 1082.56 1239.95C1067.15 1235.6 1054.05 1229.5 1037.76 1225.92C1010.29 1219.89 987.102 1224.47 959.672 1228.02C890.524 1245.02 805.289 1246.41 740.05 1206.91C646.086 1150.01 586.02 1074.8 541.974 925.64C575.325 910.024 627.676 897.757 662.03 895.583Z"/><path fill="#EB3E6A" transform="scale(0.366937 0.366937)" d="M2388.31 634.738C2391.8 634.359 2396.67 633.465 2399.62 636.671C2407.49 645.232 2412.84 684.951 2415.24 699.739C2423.83 752.59 2416.48 810.716 2399.09 857.11C2354.88 975.032 2271.44 1018.79 2195.5 1055.16C2147.64 1078.08 2099.12 1097.12 2050.87 1116.68C2042.17 1120.39 2033.46 1124 2024.73 1127.52C2085.79 1023.34 2022.25 952.255 2070.67 842.165C2123.63 721.753 2234.84 678.273 2319.11 650.272C2341.07 642.972 2364.59 641.522 2386.33 635.324L2388.31 634.738Z"/><path fill="#0E5B45" transform="scale(0.366937 0.366937)" d="M1578.72 1487.79C1624.7 1481.62 1683.7 1506.62 1720.9 1551.66C1802.54 1650.53 1775.9 1797.31 1691.94 1860.66C1661.49 1883.64 1642.74 1889.39 1609.65 1895.73C1552.27 1897.85 1497.93 1881.59 1452.3 1820.39C1407.74 1760.64 1398.46 1661.93 1437.98 1589.39C1472.97 1525.17 1527.78 1493.41 1578.72 1487.79Z"/><path fill="#EB3E6A" transform="scale(0.366937 0.366937)" d="M1115.99 4019.97C1139.4 4020.17 1290.75 4017.79 1301.7 4025.03C1304.52 4031.67 1305.46 4041.08 1304.17 4047.79C1297.81 4070.67 1264.51 4054.96 1254.92 4071.74C1246.21 4086.97 1249.02 4138.55 1249.02 4159.04L1249.09 4292.73C1267.92 4270.52 1288.07 4253.88 1307.33 4233.37C1354.74 4182.9 1404.29 4138.27 1451.21 4086.65C1454.6 4082.92 1454.67 4080.68 1455.73 4075.03L1453.56 4069.74C1440.92 4058.04 1419.8 4058.43 1404.37 4054.44C1401.69 4047.63 1402.3 4030.64 1405.1 4023.71C1406.63 4022.99 1409.06 4021.76 1410.68 4021.83C1465.05 4024.07 1519.52 4020.86 1573.89 4022.19C1578.88 4022.32 1580.79 4022.66 1584.34 4027.66C1585.34 4033.62 1585.8 4038.81 1585.88 4045.6C1586.03 4059.32 1560.09 4055.71 1553.17 4061.26C1549.57 4062.9 1543.82 4064.16 1540.67 4067.28C1494.97 4112.63 1449.21 4157.94 1403.62 4203.61C1396.04 4211.2 1388.33 4219.97 1381.62 4229.57C1398.77 4250.4 1418.3 4281.75 1434.26 4306.11L1509.75 4421.5C1541.55 4476.16 1558.29 4481.97 1601.94 4490.86L1601.74 4525.36C1530.87 4524 1460 4523.69 1389.13 4524.44C1388.46 4513.02 1388.54 4500.77 1388.43 4489.23C1399.93 4487.65 1434.63 4484.74 1439.23 4466.65C1435.89 4431.47 1349.96 4307.37 1328.8 4273.77C1314.42 4285.22 1263.78 4337.72 1249.78 4353.4C1251.19 4462.92 1231.61 4478.63 1304.26 4488.68L1304.04 4524.97C1243.81 4524.48 1173.54 4527.56 1114.37 4523.42C1113.85 4511.85 1113.6 4499.43 1113.24 4487.77C1124.77 4486.56 1166.34 4487.19 1166.77 4463.07C1168.9 4342.44 1167.47 4221.21 1168.09 4100.46C1168.11 4095.33 1167.62 4077.29 1165.52 4074.18C1153.96 4057.07 1129.16 4059.7 1114.11 4058.45C1114.28 4043.41 1114.21 4034.99 1115.99 4019.97Z"/><path fill="#EB3E6A" transform="scale(0.366937 0.366937)" d="M2872.16 4020.61C2884.71 4019.59 2888.03 4020.55 2899.63 4026.29C2906.89 4040.33 2925 4090.95 2932.46 4110.04L3019.88 4335.6C3034.68 4373.91 3060.32 4444.55 3077.79 4475.59C3094.93 4482.35 3114.17 4486.46 3131.69 4490.38L3131.51 4525.08L2918.85 4524.36C2917.95 4514.42 2917.61 4500.47 2917.18 4490.15C2932.29 4488.33 2960.26 4487.28 2974.63 4477.58C2978.69 4474.85 2978.87 4470.05 2979.59 4464.59C2977.19 4447.1 2951.28 4387.85 2943.87 4370.27C2913.46 4369.62 2883.05 4369.46 2852.64 4369.8C2819.49 4369.39 2786.33 4369.53 2753.18 4370.21C2745.35 4388.08 2718.72 4446.76 2716.17 4464.3C2723.09 4487.15 2760.06 4479.04 2777.58 4491.96C2781.05 4498.6 2781.3 4505.58 2780.34 4514.53C2779.97 4517.96 2779.34 4520.57 2777.37 4521.94C2769.98 4527.09 2600.86 4525.59 2596.92 4521.65C2594.85 4519.58 2593.82 4512.36 2593.56 4508.55C2593.27 4504.31 2592.87 4495.64 2594.95 4492.45C2599.3 4485.79 2636.15 4481.73 2648.72 4467.89C2658.23 4457.42 2665.2 4435.1 2671.36 4419.44C2698.93 4349.44 2730.31 4282.89 2759.19 4214.22C2783.06 4157.46 2812.83 4077.83 2838.9 4026.74C2850.02 4025.2 2861.11 4023.15 2872.16 4020.61ZM2768.36 4326.72C2797.23 4327.26 2826.1 4327.45 2854.97 4327.26C2879.37 4327.17 2904.75 4326.5 2929.06 4327.59C2923.25 4305.34 2858.55 4129.33 2851.4 4122C2822.96 4189.65 2797.08 4259.39 2768.36 4326.72Z"/><path fill="#EB3E6A" transform="scale(0.366937 0.366937)" d="M832.8 4023.34C840.932 4022.82 848.805 4023.84 856.927 4024.59C866.328 4042.55 884.526 4091.76 893.054 4113.36L983.451 4346.27C997.645 4382.96 1012.08 4422.53 1027.62 4457.59C1040.14 4485.81 1068.23 4485.81 1089.2 4489.29L1089.1 4524.16C1025.81 4526.81 961.689 4520.08 898.378 4524.68C886.227 4525.57 869.886 4514.82 878.912 4491.04C893.356 4484.75 932.865 4493.05 941.625 4470.63C937.549 4453.7 912.219 4388.07 905.316 4369.33L815.705 4369.53L712.717 4369.61C702.309 4390.1 688.718 4424.09 679.798 4446.24C662.912 4488.16 724.97 4487.48 739.143 4489.01C739.381 4500.42 739.209 4513.16 739.212 4524.69L553.396 4523.39C552.888 4512.85 553.176 4499.07 553.212 4488.25C572.457 4487.68 591.263 4482.4 609.181 4470.8C618.941 4452.27 641.804 4394.42 652.292 4370.04C686.78 4291.27 720.733 4211.85 754.144 4131.81C767.349 4100.47 780.856 4065.64 794.908 4035.54C801.476 4021.47 821.524 4023.76 832.8 4023.34ZM727.029 4327.36C754.903 4328.21 782.782 4328.64 810.661 4328.65C836.724 4328.65 865.265 4329.53 891.105 4327.59C879.663 4298.29 820.112 4131.06 810.986 4121.21C784.099 4191.87 758.115 4261.38 727.029 4327.36Z"/><path fill="#FB9A2F" transform="scale(0.366937 0.366937)" d="M2134.38 1258.93C2181.67 1173.08 2249.97 1059.14 2315.72 1018.15C2406.28 961.689 2551.03 980.583 2641.66 1028.89C2610.82 1141.21 2551.23 1213.26 2483.27 1255.95C2395.88 1310.85 2306.47 1301.05 2215.47 1290.44C2196.18 1288.19 2166.85 1290.51 2150.1 1286.74C2223.41 1221.34 2317.58 1149.95 2396.44 1107.26C2405.5 1106.35 2456.2 1080.98 2467.91 1075.59L2467.13 1074.35C2448.11 1073.03 2401.03 1092.02 2382.15 1100.38C2334.8 1122.34 2286.95 1147.55 2241.73 1179.82C2204.91 1206.1 2172.7 1239.49 2134.38 1258.93Z"/><path fill="#FB9A2F" transform="scale(0.366937 0.366937)" d="M911.493 638.781C976.789 640.066 1093.72 694.642 1146.26 759.863C1197.22 817.33 1214.05 899.467 1216.01 998.469C1216.54 1025.38 1216.35 1066.1 1219.3 1093.36C1203.91 1081.87 1178.51 1056.45 1163.96 1041.79C1109.33 986.73 1056.72 929.532 1008.35 860.165C991.686 834.134 979.915 815.65 965.685 786.036C971.743 811.889 985.932 847.824 997.396 867.851C1042.3 952.932 1090.41 1003.29 1147.76 1062.72C1165.43 1081.03 1184.09 1096.58 1201.23 1116.25C1129.64 1090.47 1057.03 1056.24 988.616 1012.8C940.057 981.969 892.262 913.645 880.507 826.4C870.146 749.507 887.911 701.199 911.493 638.781Z"/><path fill="#FB9A2F" transform="scale(0.366937 0.366937)" d="M716.576 2406.36C717.977 2346.92 730.266 2289.61 751.802 2242.07C835.291 2059.56 1007.1 2068.45 1131.74 2039.6C1090.41 2106.35 1024.71 2175.18 976.927 2229.9C963.653 2245.1 945.745 2260.43 931.527 2275.92C914.597 2287.89 890.871 2309.03 874.009 2323.3C889.497 2318.08 916.608 2304.05 930.442 2291.64C1014.55 2237.37 1084.5 2157.03 1152.09 2058.36C1126.6 2169.16 1094.17 2275.98 1032.69 2342.37C951.547 2430 809.577 2439.1 716.576 2406.36Z"/><path fill="#92B528" transform="scale(0.366937 0.366937)" d="M2469.41 1658.12C2541.71 1649 2627.94 1671.05 2696.45 1711C2707.76 1717.6 2726.57 1729.28 2735.95 1739.66C2723.99 1759.93 2708.49 1776.11 2694.19 1791.34C2631.17 1858.49 2552.38 1877.11 2478.81 1876.51C2387.42 1872.91 2302.69 1815.13 2218.08 1762.27C2214.59 1760.09 2214.72 1758.81 2213.85 1753.68C2219.06 1747.83 2240.8 1738.65 2249.02 1733.96C2318.44 1694.34 2395.73 1663.52 2469.41 1658.12Z"/><path fill="#92B528" transform="scale(0.366937 0.366937)" d="M719.109 1544.49C770.67 1539.3 833.985 1556.98 884.748 1570.73C911.565 1577.99 951.043 1588.86 976.354 1600.24C942.563 1627.51 909.303 1659.51 875.445 1686.61C824.455 1727.25 770.212 1755.52 714.378 1770.55C710.379 1773 687.451 1777.38 681.894 1778.28C609.264 1789.99 537.408 1773.46 466.973 1744.83C473.022 1731.21 479.476 1718.1 486.31 1705.54C546.499 1596.15 632.166 1551.86 719.109 1544.49Z"/><path fill="#3793C6" transform="scale(0.366937 0.366937)" d="M298.535 1274.02C377.077 1277.58 393.648 1316.01 445.029 1405.33C460.562 1432.33 473.48 1448.83 494.691 1462.67C498.423 1465.1 496.72 1462.75 499.083 1467.85C494.391 1473.98 471.494 1482.74 463.551 1487.64C395.312 1529.75 354.639 1543.61 282.699 1548.99C257.921 1546.76 237.454 1544.27 213.197 1534.23C157.177 1511.57 109.058 1452.27 79.7779 1369.82C111.983 1331.7 197.657 1293.52 238.625 1282.8C256.431 1278.14 280.035 1275.39 298.535 1274.02Z"/><path fill="#92B528" transform="scale(0.366937 0.366937)" d="M2011.02 116.541C2029.85 110.995 2079.71 233.866 2085.56 265.506C2121.64 460.644 1957.05 452.867 1888.23 503.206C1883.72 510.384 1878.42 517.679 1873.67 524.535C1854.8 483.701 1824.59 399.427 1817.77 351.525C1795.12 192.518 1944.43 139.373 2011.02 116.541Z"/><path fill="#FB9A2F" transform="scale(0.366937 0.366937)" d="M1601.78 460.611C1610.92 463.064 1619.7 468.944 1628.54 474.213C1691.73 511.892 1788.12 617.838 1764.07 750.4C1751.42 820.175 1721.3 891.011 1694.39 949.741C1689.3 960.593 1686.33 965.417 1680.47 974.898C1571.16 826.243 1472.15 671.147 1601.78 460.611Z"/><path fill="#FB9A2F" transform="scale(0.366937 0.366937)" d="M2802.12 1969.77C2877.21 1966.97 2952.44 1991.26 2997.63 2099.39C3006.31 2120.16 3021.82 2172.48 3019.23 2196.69C3001.58 2224.46 2887.24 2242.56 2860.54 2245.62C2817.63 2247.32 2741.81 2244.63 2712.62 2185.65C2679.1 2117.91 2688.5 2059.2 2636.08 2007.31C2690.85 1988.52 2746.33 1975.98 2802.12 1969.77Z"/><path fill="#EB3E6A" transform="scale(0.366937 0.366937)" d="M2154.55 4022.92C2206.21 4025.22 2260.7 4023.53 2312.6 4023.14C2402.56 4022.52 2492.53 4022.65 2582.49 4023.53C2587.02 4076.65 2590.66 4129.96 2593.41 4183.41C2577.92 4184.76 2562.44 4186.28 2546.97 4187.95C2540.8 4156.43 2540.37 4114.71 2526.29 4090.54C2504.82 4053.7 2441.4 4061.96 2409.1 4061.69L2409.26 4332.17C2409.27 4357.65 2406.78 4452.69 2412.91 4468.48C2425.66 4483.26 2462.19 4484.67 2480.16 4488.73L2480.19 4524.28C2411.11 4527.99 2340.85 4521.63 2271.67 4525.54C2269.04 4525.69 2262.21 4522.31 2260.83 4519.06C2237.93 4465.04 2313.7 4496.87 2323.73 4471.23C2327.06 4462.56 2327.45 4454.32 2327.58 4449.18C2328.75 4403.22 2328.23 4357.07 2328.17 4311.16C2328.27 4228.37 2328.09 4145.57 2327.63 4062.78C2309.21 4062.14 2289.2 4061.69 2270.95 4061.05C2207.51 4058.82 2199.14 4095.51 2188.61 4187.01C2173.07 4186.54 2157.52 4186.19 2141.97 4185.98C2143.52 4155.66 2149.4 4046.05 2154.55 4022.92Z"/><path fill="#EB3E6A" transform="scale(0.366937 0.366937)" d="M170.422 2063.5C212.225 1786.9 333.991 1785.81 475.9 1848.18C484.99 1852.18 493.811 1856.6 502.775 1861.44C482.001 1867.13 459.563 1869.26 438.253 1874.31C387.494 1886.32 347.229 1905.94 300.067 1938.62C284.355 1948.05 271.501 1961.25 259.121 1979.94C269.691 1973.07 286.787 1962.95 296.54 1955.07C325.532 1933.89 482.283 1875.35 504.668 1898.7C503.45 1907.34 497.411 1924.69 494.539 1933.4C476.253 1988.82 448.667 2048.25 413.748 2076.84C340.805 2136.57 244.346 2102.68 170.422 2063.5Z"/><path fill="#FB9A2F" transform="scale(0.366937 0.366937)" d="M1322.32 125.355C1365.65 136.43 1411.65 151.537 1453.68 173.102C1497.99 195.841 1558.96 254.533 1540.02 347.61C1533.72 378.568 1501.07 456.935 1483.43 469.026C1482.29 468.71 1481.15 468.395 1480.01 468.079C1478.59 450.167 1476.18 411.49 1473.45 395.682C1463.67 339.138 1446.21 299.294 1422.08 258.435C1414.44 245.179 1407.81 237.957 1397.96 229.561C1400.46 235.136 1413.89 265.798 1415.89 268.694C1445.28 343.867 1449.51 390.351 1450.77 478.658C1433.05 471.456 1415.59 460.819 1398.34 452.512C1277.54 394.329 1191.71 305.385 1322.32 125.355Z"/><path fill="#EB3E6A" transform="scale(0.366937 0.366937)" d="M2734.09 1589.72C2799.09 1487.9 2844.23 1417.96 2941.42 1421.52C2989.54 1423.28 3058.62 1461.58 3099.06 1504.16C3071.48 1588.19 3025.21 1663.75 2967.72 1693.71C2896.65 1730.75 2811.9 1675.5 2745.33 1632.78C2742.91 1631.23 2738.19 1625.48 2736.05 1622.91C2799.08 1626.65 2862.07 1626.47 2924.12 1603.63C2934.78 1601.66 2952.91 1592.06 2963.19 1586.32C2972.98 1586.97 2990.11 1570.86 2998.78 1562.74C2986.06 1564.93 2970.95 1569.41 2959.19 1577.84C2943.31 1582.57 2927 1585.09 2911.72 1589.98C2857.11 1600.49 2788.22 1602.56 2734.09 1589.72Z"/><path fill="#3793C6" transform="scale(0.366937 0.366937)" d="M2480.68 1387.34C2551.22 1383.99 2621.35 1406.32 2686.14 1452.76C2684.64 1455.28 2684.03 1456.26 2682.39 1458.56C2619.83 1546.25 2517.31 1591.61 2435.75 1580.06C2364.8 1570.74 2294.57 1550.04 2226.03 1518.25C2237.14 1506.33 2264.2 1490.15 2277.59 1480.67C2349.56 1429.7 2402.45 1400.21 2480.68 1387.34Z"/><path fill="#3793C6" transform="scale(0.366937 0.366937)" d="M1323.15 542.057C1353.63 549.994 1419 611.095 1440.36 652.836C1463.97 694.524 1476.13 739.191 1475.81 796.7C1475.67 823.059 1455.75 992.234 1437.74 986.255C1365.65 912.519 1246.4 809.725 1286.61 637C1295.22 600.014 1308.53 572.617 1323.15 542.057Z"/><path fill="#FB9A2F" transform="scale(0.366937 0.366937)" d="M871.703 1822.9C919.479 1820.75 969.528 1828.31 1016.94 1836.7C992.402 1866.81 970.666 1896.05 944.795 1924.18C881.633 1993.92 807.863 2032.53 732.027 2035.55C676.622 2036.86 637.875 2027.57 584.285 2007.74C588.646 1998.81 593.198 1990.14 597.934 1981.75C672.67 1850.44 768.778 1827.1 871.703 1822.9Z"/><path fill="#92B528" transform="scale(0.366937 0.366937)" d="M594.314 788.756C578.951 802.217 556.619 810.103 539.453 816.602C471.24 842.427 387.29 848.442 325.898 784.607C300.32 758.011 270.515 698.677 264.41 648.8C267.071 636.228 294.017 627.422 301.59 624.789C358.292 605.078 423.462 593.392 479.863 618.458C517.612 635.234 550.776 676.999 575.989 725.145C582.705 738.006 590.817 748.698 595.877 763.794L594.323 766.167C572.473 771.691 479.491 752.964 453.417 747.62C441.408 741.738 424.4 738.676 411.239 734.065C401.874 730.785 381.718 720.74 373.854 719.512C381.396 734.387 456.4 768.057 469.806 768.654C502.323 781.332 560.098 785.328 594.314 788.756Z"/><path fill="#FB9A2F" transform="scale(0.366937 0.366937)" d="M2510.06 658.606C2502.41 605.586 2487.82 534.427 2508.15 485.544C2545.09 396.715 2641.05 365.363 2701.68 359.76C2736.9 453.958 2757.39 531.212 2689.16 602.368C2665.92 626.608 2563.82 679.562 2537.71 674.237L2537.65 671.263C2545.6 660.182 2559.62 647.341 2569.14 637.216C2603.22 600.98 2624.09 573.11 2649.22 520.925C2651.07 518.494 2656.88 502.344 2658.56 497.941C2663.16 491.444 2670.7 458.419 2673.23 448.208C2665.53 461.844 2657.36 481.484 2650.54 496.926C2647.68 502.056 2644.13 507.949 2641.67 513.452C2606.22 569.837 2555.76 626.685 2510.06 658.606Z"/><path fill="#0E5B45" transform="scale(0.366937 0.366937)" d="M2035.02 660.449C2040.37 660.612 2040.23 661.351 2042.82 667.205C2046.15 709.212 2039.03 749.575 2027.25 786.497C1989.22 905.6 1877.34 966.152 1804.1 1002.44C1799.67 1004.21 1801.69 1004.85 1797.82 1001.88C1787.58 963.581 1811.8 841.91 1827.44 806.503C1875.66 697.341 1960.54 679.841 2035.02 660.449Z"/><path fill="#EB3E6A" transform="scale(0.366937 0.366937)" d="M1064.21 232.282C1065.75 231.987 1068.94 231.501 1070.37 232.299C1129.3 265.167 1211.86 337.614 1167.79 461.953C1152.17 505.996 1133.95 540.937 1109.52 571.089C1106.35 575 1103.26 572.288 1100.17 570.696C1049.43 535.716 939.787 464.255 991.693 336.606C1007.64 297.384 1039.85 256.344 1064.21 232.282Z"/><path fill="#3793C6" transform="scale(0.366937 0.366937)" d="M443.887 2170.91C449.584 2170.08 455.291 2169.46 461.004 2169.04C479.388 2167.83 497.8 2168.38 516.146 2170.68C536.428 2173.47 632.702 2197.01 643.757 2213.96C642.845 2223.78 629.254 2245.4 624.753 2254.95C593.651 2320.94 557.186 2350.61 507.969 2364.03C435.962 2378.46 374.275 2344.55 308.43 2304.91C344.042 2221.58 384.66 2185.2 443.887 2170.91Z"/><path fill="#92B528" transform="scale(0.366937 0.366937)" d="M2834.95 1129.72C2892.16 1125.49 2985.68 1170.09 3027.79 1236.27C2981.33 1303.05 2936.35 1326.57 2876.89 1332.41C2812.23 1331.54 2740.34 1292.52 2683.41 1242.14C2719.07 1175.9 2782.98 1140.68 2834.95 1129.72Z"/><path fill="#FB9A2F" transform="scale(0.366937 0.366937)" d="M675.338 1276.66C711.082 1273.82 761.045 1279.99 794.778 1294.87C861.038 1324.09 936.748 1395.27 984.194 1478.06C964.752 1480.6 948.349 1483.57 928.631 1484.55C857.243 1488.54 771.973 1486.11 706.85 1434.76C670.071 1405.76 632.004 1350.09 618.007 1285.16C639.72 1280.17 653.651 1278.1 675.338 1276.66Z"/><path fill="#3793C6" transform="scale(0.366937 0.366937)" d="M2170.27 1870.37C2197.82 1872.11 2227.44 1880.78 2254.8 1886.92C2355.32 1909.46 2475.43 1954.27 2481.24 2158.83C2433.21 2154.82 2365.55 2128.37 2321.11 2099.59C2265.14 2063.34 2224.32 2010.23 2190.93 1927.19C2184.07 1910.11 2175.12 1889 2170.27 1870.37Z"/><path fill="#FB9A2F" transform="scale(0.366937 0.366937)" d="M639.897 454.739C739.23 451.95 806.963 495.056 827.802 667.596C799.733 655.425 778.546 655.211 750.123 655.56C676.325 657.43 581.674 661.27 558.703 513.46C556.852 501.554 553.389 487.991 556.285 475.932C570.075 462.162 622.501 457.068 639.897 454.739Z"/><path fill="#FB9A2F" transform="scale(0.366937 0.366937)" d="M2815.15 699.534C2827.1 699.212 2839.99 700.057 2852.01 700.469C2881.2 914.061 2764.7 932.395 2668.24 947.181C2651.82 948.259 2638.71 948.408 2622.3 947.889C2629.24 929.292 2634.46 915.521 2638.81 894.87C2647.08 855.71 2650.4 798.212 2668.2 767.922C2701.32 711.593 2771 701.188 2815.15 699.534Z"/><path fill="#0E5B45" transform="scale(0.366937 0.366937)" d="M352.329 1010.96C421.437 1000.61 480.883 1033.24 524.573 1122.98C531.545 1137.3 538.529 1148.18 544.152 1164.72C493.971 1162.74 478.555 1180.93 434.004 1191.54C404.255 1203.39 352.34 1198.54 323.355 1181.22C281.609 1156.27 261.384 1117.85 242.418 1054.37C280.583 1030.65 312.323 1019.77 352.329 1010.96Z"/><path fill="#92B528" transform="scale(0.366937 0.366937)" d="M2521.7 2282.9C2529.99 2285.55 2538.51 2292.5 2547.37 2292.07C2625.13 2288.27 2753.71 2253.26 2780.59 2417.59C2782.98 2432.24 2789.63 2453.05 2785.42 2467.23C2759.51 2474.51 2733.33 2478.95 2707.07 2480.51C2633.32 2484.87 2558.1 2461.14 2531.05 2331.74C2527.88 2316.58 2521.96 2299.31 2521.7 2282.9Z"/><path fill="#3793C6" transform="scale(0.366937 0.366937)" d="M2302.35 320.357C2307.23 319.525 2307.65 318.993 2312.52 321.003C2338.14 358.55 2350.08 439.976 2329.76 488.333C2298.88 561.824 2235.3 579.318 2186.55 596.96C2180.25 599.048 2175.99 600.48 2169.63 601.455L2167.76 597.212C2170.88 557.056 2156.92 528.666 2152.9 492.421C2137.09 350.02 2245.92 336.239 2302.35 320.357Z"/><path fill="#FB9A2F" transform="scale(0.366937 0.366937)" d="M1525.65 1034.91C1550.96 1048.96 1574.35 1061.16 1597.13 1084.73C1670.09 1160.23 1633.86 1220.32 1598.74 1305.2C1573.92 1270.5 1547.63 1235.99 1537.13 1183.09C1534.01 1159.3 1532.06 1131.97 1528.92 1110.33C1525.18 1141.62 1521.8 1165.66 1529.42 1196.42C1540.52 1247.48 1556.92 1274.83 1578.27 1314.09C1563.39 1306.26 1547.55 1295.07 1533.22 1284.61C1430.48 1209.53 1448.97 1130.67 1525.65 1034.91Z"/><path fill="#3793C6" transform="scale(0.366937 0.366937)" d="M1883.02 1093.31C1894.91 1098.76 1898.29 1132.6 1901.65 1149.85C1930.96 1300.26 1828.73 1321.26 1766.8 1343.98C1761.21 1345.39 1758.42 1346.59 1752.71 1345.49C1748.79 1338.04 1755.99 1310.91 1754.04 1299.25C1727.51 1140.43 1798.39 1115.45 1883.02 1093.31Z"/><path fill="#EB3E6A" transform="scale(0.366937 0.366937)" d="M1279.04 1129.71C1303.73 1130.94 1334.17 1157.78 1354.28 1180.72C1412.82 1247.5 1402.95 1338.4 1363.72 1423.41C1349.78 1418.64 1305.91 1363.9 1293.1 1347.66C1237.81 1277.62 1236.64 1215.24 1279.04 1129.71Z"/><path fill="#FB9A2F" transform="scale(0.366937 0.366937)" d="M2030.4 1315.16C2079.18 1312.35 2124.25 1324.81 2172.28 1337.37C2152.6 1371.75 2106.44 1431.38 2079.23 1445.92C2066.15 1452.92 2053 1454.48 2039.24 1456.32C2008.6 1458.78 1929.68 1442.5 1897.2 1431.57C1905.79 1416.93 1920.13 1400.21 1930.25 1387.81C1969.37 1339.87 1982.89 1325.37 2030.4 1315.16Z"/><path fill="#3793C6" transform="scale(0.366937 0.366937)" d="M1054.26 2452.14C1060.06 2450.46 1060.78 2450.11 1066.56 2450.41C1069.53 2453.34 1070.69 2453.06 1071.59 2457.63C1074.35 2471.69 1064.18 2512.96 1060.38 2526.69C1028.97 2640.09 990.564 2669.54 925.079 2711.8C918.889 2714.62 920.356 2715.62 915.292 2712.72C890.734 2649.41 930.614 2533.52 965.858 2501.28C994.922 2474.7 1020.85 2457.67 1054.26 2452.14Z"/><path fill="#FB9A2F" transform="scale(0.366937 0.366937)" d="M1033.6 1314.63C1107.42 1307.83 1220.28 1336.82 1277.05 1414.6C1286.08 1426.98 1314.85 1466.71 1316.24 1486.32C1253.88 1484.85 1167.56 1458.54 1110.57 1415.49C1092.56 1401.89 1040.1 1346.04 1033.6 1314.63Z"/><path fill="#FB9A2F" transform="scale(0.366937 0.366937)" d="M2198.73 2533.34C2235.48 2541.43 2309.52 2583.62 2315.03 2657.89C2315.88 2669.36 2322.02 2774.13 2321.23 2778.8C2316.07 2781.27 2310.54 2778.41 2305.1 2776.64C2298.63 2772.58 2290.16 2768.98 2283.47 2765.37C2213.09 2727.36 2147.58 2671.6 2198.73 2533.34Z"/><path fill="#EB3E6A" transform="scale(0.366937 0.366937)" d="M793.035 2494.41L794.665 2499.31C787.865 2552.16 807.188 2573.61 797.686 2624.43C788.231 2675 697.887 2721.39 675.085 2705.67C618.785 2547.57 725.728 2521.03 793.035 2494.41Z"/><path fill="#FB9A2F" transform="scale(0.366937 0.366937)" d="M213.959 1614.13C273.104 1610.13 308.581 1654.72 354.764 1707.07C327.77 1733.45 297.411 1747.73 266.714 1756.23C214.531 1761.24 161.35 1730.66 129.004 1659.61C162.336 1629.07 176.426 1621.14 213.959 1614.13Z"/><path fill="#0E5B45" transform="scale(0.366937 0.366937)" d="M2907.92 1778.87C2964.46 1772.39 3017.62 1798.13 3041.87 1893.9C3043.28 1899.47 3042.36 1902.91 3040.62 1907.36C3027.64 1919.36 2992.19 1927.36 2976.97 1928.22C2961.18 1929.02 2945.39 1926.55 2929.96 1920.85C2889.82 1905.52 2860.76 1856.51 2839.48 1799.84C2861.26 1790.85 2885.64 1784.2 2907.92 1778.87Z"/><path fill="#3793C6" transform="scale(0.366937 0.366937)" d="M1720.7 131.66C1730.07 135.907 1746.36 169.784 1750.99 184.129C1782.43 281.534 1682.52 319.159 1649.68 348.143C1559.45 224.618 1649.71 160.914 1720.7 131.66Z"/><path fill="#0E5B45" transform="scale(0.366937 0.366937)" d="M833.171 267.931C841.111 266.748 850.071 272.12 857.242 277.704C896.24 308.071 927.052 370.513 932.773 442.369C933.924 456.823 936.453 484.966 934.462 498.51L932.286 500.626C924.745 499.075 920.153 494.237 913.325 488.645C877.432 463.185 836.329 428.671 813.276 374.851C792.149 325.528 806.739 294.702 833.171 267.931Z"/><path fill="#0E5B45" transform="scale(0.366937 0.366937)" d="M2679.92 4947.36C2709.2 4945.52 2771.53 4935.66 2791.75 4977.4C2806.39 5007.59 2787.04 5023.78 2773.38 5036.78C2779.36 5043.39 2783.97 5049.41 2789.59 5056.71C2795.5 5082.96 2798.47 5123.24 2772.95 5105.8C2772.56 5069.88 2768.97 5065.94 2751.39 5047.16L2692.31 5047.95C2691.44 5068.75 2695.24 5088.16 2689.27 5105.66C2682.98 5114.38 2676 5113.07 2670.21 5103.87C2665.67 5087.82 2668.3 4984.53 2668.9 4961.63C2672.51 4955.26 2675.62 4952.22 2679.92 4947.36ZM2690.27 5019.55C2713.01 5027.78 2742.49 5027.85 2764.76 5015.17C2795.28 4960.08 2703.29 4972.88 2691.24 4973.16C2690.25 4990.61 2690.19 5002 2690.27 5019.55Z"/><path fill="#FEFCF6" fill-opacity="0.0078431377" transform="scale(0.366937 0.366937)" d="M2691.24 4973.16C2703.29 4972.88 2795.28 4960.08 2764.76 5015.17C2742.49 5027.85 2713.01 5027.78 2690.27 5019.55C2690.19 5002 2690.25 4990.61 2691.24 4973.16Z"/><path fill="#0E5B45" transform="scale(0.366937 0.366937)" d="M526.614 2402.48C552.336 2399.77 605.029 2400.03 630.662 2402.63C597.459 2460.03 540.572 2480.73 495.24 2493.33C476.767 2496.17 406.115 2504.46 395.915 2477.81C396.171 2472.89 395.922 2469.95 398.641 2465.9C431.224 2417.35 487.673 2408.04 526.614 2402.48Z"/><path fill="#0E5B45" transform="scale(0.366937 0.366937)" d="M2923.81 954.351C2941.83 952.547 3036.69 950.615 3041.88 977.118C3030.12 1012.42 2947.43 1030.54 2924.08 1034.77C2902.34 1035.85 2813.72 1039.92 2803.1 1012.73L2804.38 1006.65C2826.11 973.818 2895.18 959.678 2923.81 954.351Z"/><path fill="#0E5B45" transform="scale(0.366937 0.366937)" d="M1394.75 5077.66C1410.16 5049 1445.46 4923.44 1473.01 4946.71C1477.69 4950.68 1481.05 4957.91 1482.17 4966.43C1484.22 4981.69 1491.83 5152.41 1462.54 5104.64C1458.71 5091.27 1460.08 5018.34 1460.07 4998.08C1459.74 4989.41 1460.8 4992.81 1458.11 4986.62C1450.42 4994.43 1418.59 5089.74 1408.75 5104.51C1402.8 5113.45 1390.49 5107.43 1382.82 5104.6C1366.89 5074.92 1344.33 5012.34 1328.72 4976.88C1328.8 4993.97 1329.93 5089.08 1328.04 5098.79C1323.61 5106.29 1323.93 5106.27 1318.08 5109.77C1314.26 5108.2 1312.27 5108.08 1309.89 5101.21C1303.35 5082.27 1305.71 4976.49 1308.15 4959.85C1312.24 4951.98 1315.72 4951.43 1321.98 4948.11C1334.07 4947.73 1339.56 4948.85 1347.38 4965.6C1363.98 5001.13 1379.14 5040.84 1394.75 5077.66Z"/><path fill="#0E5B45" transform="scale(0.366937 0.366937)" d="M2078.32 4949.91C2082.9 4949.27 2091.07 4948.67 2094.99 4952.45C2125.65 4981.97 2156.42 5037.87 2183.95 5076C2184.61 5037.49 2183.55 4998.51 2184.19 4959.98C2184.43 4945.46 2198.3 4950.54 2203.28 4953.67C2205.32 4957.31 2206.54 4957.94 2206.59 4961.5C2206.85 4981.91 2209.66 5091.96 2204.52 5102.87C2200 5108.89 2196.26 5108.46 2190.43 5109.57C2163.35 5104.04 2111.3 5012.15 2088.78 4978.73C2088.57 5000.94 2090.96 5094.19 2087.02 5105.51C2082.41 5111.4 2082.47 5110.95 2077 5112.41C2073.26 5110.12 2071.08 5109.24 2068.87 5102.55C2062.48 5083.16 2065.12 4977.35 2067.54 4960.24C2070.82 4953.6 2073.45 4952.91 2078.32 4949.91Z"/><path fill="#0E5B45" transform="scale(0.366937 0.366937)" d="M452.327 4947.51C456.762 4946.98 462.47 4945.74 466.827 4947.57C475.48 4951.19 526.748 5071.83 533.129 5090.51C535.204 5096.58 535.445 5096.14 534.347 5102.68C518.99 5121.25 507.667 5088.58 498.839 5070.61L473.823 5070.07C456.531 5069.6 439.235 5069.7 421.946 5070.38C412.699 5092.61 406.672 5116.57 388.21 5104.02C386.768 5100.85 385.387 5099.44 386.175 5096.53C394.468 5065.94 440.185 4962.25 452.327 4947.51ZM431.121 5046.61L459.077 5046.78L486.78 5046.62C481.624 5034.18 463.77 4988.02 457.958 4982.18L431.121 5046.61Z"/><path fill="#0E5B45" transform="scale(0.366937 0.366937)" d="M1887.71 4947.39C1902.98 4944.48 1984.71 4941.37 1992.3 4959.91L1990.66 4965.16C1988.51 4968.28 1985.89 4971.88 1982.93 4972.14C1956.48 4974.48 1926.26 4973.1 1899.92 4973.11L1899.93 5014.18C1915.93 5014.11 1974.38 5008.24 1983.8 5026.4C1982.98 5035.52 1984.1 5031.68 1980.44 5038.4C1970.29 5042.92 1947.69 5040.95 1936.04 5040.61L1900.18 5040.92L1900.19 5086.4C1918.5 5086.88 1979.03 5080.5 1990.52 5092.13C1993.61 5095.26 1992.58 5093.36 1993.54 5099.62C1987.5 5110.59 1969.65 5110.24 1961.07 5109.31C1934.69 5106.46 1900.6 5115.82 1876.69 5097.44C1876.28 5059.13 1878.22 5005.82 1878.88 4966.63C1879.06 4956.06 1883.17 4952.92 1887.71 4947.39Z"/><path fill="#0E5B45" transform="scale(0.366937 0.366937)" d="M2483.79 4947.45C2499.17 4946.68 2589.31 4938.76 2593.45 4960.52L2590.85 4966.11C2581.03 4973.32 2514.1 4972.11 2498.93 4972.27L2498.91 5014.62C2513.86 5014.75 2580.42 5009.51 2585.12 5029.4C2577.02 5044.68 2552.3 5039.58 2539.86 5039.49L2499.89 5039.61C2499.44 5053.27 2499.78 5072.19 2499.8 5086.3C2513.08 5086.37 2585.13 5083.95 2590.98 5090.01C2593.03 5097.66 2592.56 5093.58 2591.59 5102.84C2583.63 5113.69 2493.74 5111.75 2480.83 5100.46C2475.56 5095.86 2476.69 5046.99 2477.29 5036.08C2478.84 5007.88 2470.69 4968.66 2483.79 4947.45Z"/><path fill="#0E5B45" transform="scale(0.366937 0.366937)" d="M1165.11 4945.72C1177.97 4945.35 1219.96 4942.35 1224.25 4966.54C1215.79 4991.22 1141.57 4944.96 1132.72 4992.92C1145.34 5024.83 1231.64 5011.13 1233.43 5062.56C1234.76 5100.66 1191.87 5110.84 1172.14 5112.16C1160.28 5111.24 1148.44 5109.48 1136.66 5106.86C1126.14 5104.45 1116.56 5102.4 1110.02 5088.07L1110.47 5083.29C1122.32 5069.83 1198.12 5113.62 1209.11 5065.79C1205.72 5038.33 1133.79 5045.19 1118.79 5017.37C1090.78 4965.43 1142.61 4947.36 1165.11 4945.72Z"/><path fill="#0E5B45" transform="scale(0.366937 0.366937)" d="M615.042 4947.39C618.285 4947.58 621.464 4948.24 624.695 4948.79C644.565 4973.93 601.017 5129.77 700.834 5081.3C739.134 5062.7 698.448 4961.26 729.55 4944.31C740.942 4947.41 741.568 4962.65 741.726 4977.46C741.827 4995.02 742.706 5042.34 741.324 5057.25C734.311 5132.87 609.966 5133.35 608.229 5050.08C607.719 5025.65 607.926 4994.13 607.841 4968.79C607.801 4956.88 610.423 4953.98 615.042 4947.39Z"/><path fill="#0E5B45" transform="scale(0.366937 0.366937)" d="M1735.58 4945.7C1752.53 4943.1 1771.05 4946.15 1787.48 4953.33C1796 4957.06 1801.07 4957.42 1802.72 4973.6L1800.81 4977.82C1792.77 4982.55 1761.56 4968 1741.59 4968.09C1709.43 4968.24 1671.42 5004.94 1699.75 5062.66C1711.6 5086.82 1749.64 5087.99 1770.27 5085.59C1780.91 5080.37 1793.03 5071.79 1803.22 5080.12C1806.46 5100.16 1778.41 5107.2 1767.92 5110.48C1723.2 5124.46 1636.19 5084.22 1676.83 4984.41C1687.32 4958.66 1715.24 4947.8 1735.58 4945.7Z"/><path fill="#0E5B45" transform="scale(0.366937 0.366937)" d="M2282.53 4947.55C2311.19 4944.21 2371.61 4946.82 2402.85 4949C2406.48 4949.25 2407.75 4954.14 2409.25 4958.5L2408.31 4964.04C2401.35 4973.22 2365.15 4969.59 2353.25 4969.49L2353.35 5023.2C2353.16 5045.04 2354.95 5067.68 2353.57 5089.12C2352.52 5105.52 2342.19 5113.53 2333.45 5103.31C2327.73 5089.18 2330.24 4993.89 2330.32 4971.34C2318.18 4970.54 2282.37 4978.03 2276.44 4961.79C2277.85 4952.65 2277.68 4955.18 2282.53 4947.55Z"/><path fill="#0E5B45" transform="scale(0.366937 0.366937)" d="M815.727 4947.61C831.423 4946.56 934.917 4943.44 941.211 4951.78C943.59 4960.75 943.489 4956.41 942.114 4965.17C934.862 4974.94 898.705 4971.23 887.067 4971.02L887.024 5027.71C887.185 5051.27 889.765 5085.9 883.202 5104.81C861.271 5129.24 864.774 5063.35 864.848 5046.07C864.957 5020.68 864.982 4995.22 865.075 4969.84C853.438 4969.91 814.543 4974.6 808.363 4959.35C810.155 4951.21 810.079 4953.43 815.727 4947.61Z"/><path fill="#0E5B45" transform="scale(0.366937 0.366937)" d="M1016.74 4947.56C1023.47 4947.84 1024.06 4947.45 1029.84 4952.44C1033.43 4960.31 1034.16 4962.01 1034.07 4974.55C1033.78 5015.06 1034.98 5057.92 1032.59 5098.07C1032.31 5102.88 1029.02 5108.17 1027.18 5111.35C1020.68 5111.72 1020.93 5111.98 1014.89 5108.39C1008.82 5095.99 1007.45 4961.97 1016.74 4947.56Z"/><path fill="#FEFCF6" fill-opacity="0.21960784" transform="scale(0.366937 0.366937)" d="M469.806 768.654C456.4 768.057 381.396 734.387 373.854 719.512C381.718 720.74 401.874 730.785 411.239 734.065C424.4 738.676 441.408 741.738 453.417 747.62C448.347 747.93 443.077 746.969 439.212 751.581C443.21 758.007 462.038 762.282 469.806 768.654Z"/><path fill="#FEFCF6" fill-opacity="0.14901961" transform="scale(0.366937 0.366937)" d="M2382.15 1100.38C2401.03 1092.02 2448.11 1073.03 2467.13 1074.35L2467.91 1075.59C2456.2 1080.98 2405.5 1106.35 2396.44 1107.26L2396.13 1104.66C2392.35 1100.34 2387.01 1100.92 2382.15 1100.38Z"/><path fill="#FEFCF6" fill-opacity="0.12941177" transform="scale(0.366937 0.366937)" d="M965.685 786.036C979.915 815.65 991.686 834.134 1008.35 860.165C1003.23 857.16 1003.08 855.88 998.054 856.925C997.581 861.941 997.416 862.791 997.396 867.851C985.932 847.824 971.743 811.889 965.685 786.036Z"/><path fill="#FEFCF6" fill-opacity="0.098039217" transform="scale(0.366937 0.366937)" d="M2959.19 1577.84C2963.16 1577.15 2964.71 1575.53 2967.2 1578.38L2973.14 1575.76L2973.63 1577.11C2969.47 1579.97 2965.36 1581.29 2963.19 1586.32C2952.91 1592.06 2934.78 1601.66 2924.12 1603.63L2933.33 1593.34L2932.36 1590.8C2924.71 1591.16 2919.36 1590.81 2911.72 1589.98C2927 1585.09 2943.31 1582.57 2959.19 1577.84Z"/><path fill="#FEFCF6" fill-opacity="0.19607843" transform="scale(0.366937 0.366937)" d="M874.009 2323.3C890.871 2309.03 914.597 2287.89 931.527 2275.92C928.896 2280.3 927.275 2282.61 925.196 2287.75C926.701 2288.89 928.951 2290.73 930.442 2291.64C916.608 2304.05 889.497 2318.08 874.009 2323.3Z"/><path fill="#FEFCF6" fill-opacity="0.19215687" transform="scale(0.366937 0.366937)" d="M1528.92 1110.33C1532.06 1131.97 1534.01 1159.3 1537.13 1183.09L1530.17 1163.48C1528.27 1167 1529.59 1188.53 1529.42 1196.42C1521.8 1165.66 1525.18 1141.62 1528.92 1110.33Z"/><path fill="#FDECF1" fill-opacity="0.20392157" transform="scale(0.366937 0.366937)" d="M259.121 1979.94C271.501 1961.25 284.355 1948.05 300.067 1938.62C297.618 1942.47 295.118 1946.23 292.568 1949.9C294.083 1954.78 292.991 1952.74 296.54 1955.07C286.787 1962.95 269.691 1973.07 259.121 1979.94Z"/><path fill="#FDECF1" fill-opacity="0.33333334" transform="scale(0.366937 0.366937)" d="M2959.19 1577.84C2970.95 1569.41 2986.06 1564.93 2998.78 1562.74C2990.11 1570.86 2972.98 1586.97 2963.19 1586.32C2965.36 1581.29 2969.47 1579.97 2973.63 1577.11L2973.14 1575.76L2967.2 1578.38C2964.71 1575.53 2963.16 1577.15 2959.19 1577.84Z"/><path fill="#FEFCF6" fill-opacity="0.1254902" transform="scale(0.366937 0.366937)" d="M1397.96 229.561C1407.81 237.957 1414.44 245.179 1422.08 258.435L1418.11 259.709C1417.43 262.385 1416.43 266.028 1415.89 268.694C1413.89 265.798 1400.46 235.136 1397.96 229.561Z"/><path fill="#FEEECF" fill-opacity="0.35686275" transform="scale(0.366937 0.366937)" d="M2673.23 448.208C2670.7 458.419 2663.16 491.444 2658.56 497.941C2657.92 496.455 2656.63 494.661 2655.77 493.323L2650.54 496.926C2657.36 481.484 2665.53 461.844 2673.23 448.208Z"/><path fill="#FEFCF6" fill-opacity="0.14509805" transform="scale(0.366937 0.366937)" d="M2650.54 496.926L2655.77 493.323C2656.63 494.661 2657.92 496.455 2658.56 497.941C2656.88 502.344 2651.07 518.494 2649.22 520.925C2649.04 517.42 2648.75 517.098 2647.99 513.711L2641.67 513.452C2644.13 507.949 2647.68 502.056 2650.54 496.926Z"/></svg>