<?xml version="1.0" encoding="utf-8" ?><svg xmlns="http://www.w3.org/2000/svg" xmlns:xlink="http://www.w3.org/1999/xlink" width="598" height="242" viewBox="0 0 598 242"><clipPath id="cl_3"><rect x="-4.5776367e-05" y="6.1035156e-05" width="598.41064" height="241.86862"/></clipPath><g clip-path="url(#cl_3)"><path fill="white" transform="matrix(0.659043 0 0 0.659043 -210.235 -98.8563)" d="M329.666 286.441L404.837 286.446C409.159 298.305 414.779 311.216 419.462 323.097C431.429 354.07 443.869 384.858 456.779 415.451C462.476 403.455 470.179 382.122 475.473 368.898C486.257 341.96 498.022 313.627 508.09 286.478L581.4 286.461C582.005 310.554 581.491 336.975 581.491 361.221L581.472 504.346L524.419 504.261L524.286 449.7L524.329 409.354C524.333 401.403 524.667 390.867 523.64 383.198C518.853 392.763 512.896 409.843 508.59 420.206C497.06 447.961 486.502 476.65 474.736 504.28L437.979 504.252L406.851 428.299C401.422 414.806 394.056 394.596 387.97 382.289C387.411 394.951 387.875 411.083 387.868 423.96L387.805 504.309L329.87 504.265C329.256 479.197 329.712 452.235 329.711 427.06L329.666 286.441Z"/><path fill="white" transform="matrix(0.659043 0 0 0.659043 -210.235 -98.8563)" d="M1027.39 286.461L1092.58 286.471C1085.62 311.33 1078.9 336.257 1072.43 361.246L1034.15 504.285L975.933 504.195C964.157 463.966 953.396 422.744 941.451 382.77C937.966 391.824 933.446 410.285 930.582 420.255L906.766 504.054L847.748 504.102C843.899 479.467 789.11 293.342 791.202 286.717C796.5 286.456 804.137 286.941 809.743 286.982C824.956 287.194 840.172 287.127 855.383 286.783C864.699 327.798 872.95 369.323 882.993 410.165C886.051 401.527 891.727 378.011 894.371 367.922C901.287 341.531 910.047 312.974 916.031 286.588C931.562 285.971 950.58 286.465 966.374 286.461C967.489 291.732 969.241 297.817 970.761 303.011C981.189 338.634 989.962 375.763 1001.57 411.007C1004.88 398.546 1007.83 379.409 1010.56 366.02L1027.39 286.461Z"/><path fill="white" transform="matrix(0.659043 0 0 0.659043 -210.235 -98.8563)" d="M604.634 286.473C632.142 286.434 659.799 286.345 687.267 286.476C717.812 286.622 747.34 297.077 768.713 319.433C789.439 341.112 798.613 370.272 797.793 400.021C797.012 428.345 788.322 454.652 767.453 474.495C734.588 505.294 702.281 504.39 661.317 504.367L604.742 504.296L604.634 286.473ZM665.387 449.871C688.353 449.621 703.771 451.915 722.013 435.31C741.05 411.899 741.814 371.473 717.849 350.763C703.632 338.476 682.994 340.106 665.322 340.26L665.387 449.871Z"/><path fill="white" transform="matrix(0.659043 0 0 0.659043 -210.235 -98.8563)" d="M1138.89 226.64L1163.25 226.612L1222.38 226.558L1222.39 252.245C1208.82 252.231 1194.59 252.024 1181.07 252.226C1189.83 260.802 1200.11 270.443 1208.17 279.485C1202.46 285.607 1197.33 290.944 1191.29 296.738C1182.07 287.194 1172.74 277.307 1163.13 268.191L1163.27 314.378L1138.8 314.387C1138.88 294.625 1139.57 271.689 1138.99 252.197C1138.74 243.953 1138.9 234.945 1138.89 226.64Z"/><path fill="white" transform="matrix(0.659043 0 0 0.659043 -210.235 -98.8563)" d="M1138.87 161.781C1144.6 161.371 1156.74 161.806 1163.13 161.797L1163.25 226.612L1138.89 226.64C1138.9 234.945 1138.74 243.953 1138.99 252.197C1120.44 251.259 1097.92 251.797 1079.04 251.808C1078.88 243.454 1078.89 235.097 1079.05 226.743C1092.68 226.284 1108.64 226.633 1122.46 226.636C1113.98 217.254 1102.59 206.217 1093.52 196.956C1099.01 191.227 1104.46 185.46 1109.86 179.655C1117.57 186.294 1131.36 201.071 1138.98 208.739C1138.67 193.391 1138.89 177.186 1138.87 161.781Z"/></g></svg>